<svg width="188" height="188" viewBox="0 0 188 188" fill="none" xmlns="http://www.w3.org/2000/svg">
<g clip-path="url(#paint0_angular_32_133_clip_path)" data-figma-skip-parse="true"><g transform="matrix(0 0.094 -0.094 0 94 94)"><foreignObject x="-1000" y="-1000" width="2000" height="2000"><div xmlns="http://www.w3.org/1999/xhtml" style="background:conic-gradient(from 90deg,rgba(104, 81, 59, 1) 0deg,rgba(240, 236, 228, 1) 119.423deg,rgba(104, 81, 59, 1) 360deg);height:100%;width:100%;opacity:1"></div></foreignObject></g></g><path d="M188 178C188 183.523 183.523 188 178 188H140C134.477 188 130 183.523 130 178V68C130 62.4772 125.523 58 120 58H10C4.47715 58 0 53.5228 0 48V10C0 4.47715 4.47715 0 10 0H178C183.523 0 188 4.47715 188 10V178Z" data-figma-gradient-fill="{&#34;type&#34;:&#34;GRADIENT_ANGULAR&#34;,&#34;stops&#34;:[{&#34;color&#34;:{&#34;r&#34;:0.94117647409439087,&#34;g&#34;:0.92549020051956177,&#34;b&#34;:0.89411765336990356,&#34;a&#34;:1.0},&#34;position&#34;:0.33173078298568726},{&#34;color&#34;:{&#34;r&#34;:0.40865385532379150,&#34;g&#34;:0.32122549414634705,&#34;b&#34;:0.23379714787006378,&#34;a&#34;:1.0},&#34;position&#34;:1.0}],&#34;stopsVar&#34;:[{&#34;color&#34;:{&#34;r&#34;:0.94117647409439087,&#34;g&#34;:0.92549020051956177,&#34;b&#34;:0.89411765336990356,&#34;a&#34;:1.0},&#34;position&#34;:0.33173078298568726},{&#34;color&#34;:{&#34;r&#34;:0.40865385532379150,&#34;g&#34;:0.32122549414634705,&#34;b&#34;:0.23379714787006378,&#34;a&#34;:1.0},&#34;position&#34;:1.0}],&#34;transform&#34;:{&#34;m00&#34;:1.1511680043723663e-14,&#34;m01&#34;:-188.0,&#34;m02&#34;:188.0,&#34;m10&#34;:188.0,&#34;m11&#34;:1.1511680043723663e-14,&#34;m12&#34;:0.0},&#34;opacity&#34;:1.0,&#34;blendMode&#34;:&#34;NORMAL&#34;,&#34;visible&#34;:true}"/>
<defs>
<clipPath id="paint0_angular_32_133_clip_path"><path d="M188 178C188 183.523 183.523 188 178 188H140C134.477 188 130 183.523 130 178V68C130 62.4772 125.523 58 120 58H10C4.47715 58 0 53.5228 0 48V10C0 4.47715 4.47715 0 10 0H178C183.523 0 188 4.47715 188 10V178Z"/></clipPath></defs>
</svg>
